 http://www.imdb.com/title/tt0330171/


     Control Factor (2003)


Director     : Nelson McCormick
Genres       : Action, Sci-Fi, Thriller, Mystery
Runtime      : 84 min
Language     : English
Tagline      : When your thoughts are not your own.

Plot summary:
   An average everyman discovers he's the unwitting target
of an ultra secret domestic black-op centering on mind control.
_______________________________________________________________________

Media Info:
General
Complete name                    : Control.Factor(2003)DVDRip.XviD.avi
Format                           : AVI
Format/Info                      : Audio Video Interleave
File size                        : 701 MiB
Duration                         : 1h 24mn
Overall bit rate                 : 1 163 Kbps
Writing application              : Nandub v1.0rc2
Writing library                  : Nandub build 1852/release

Video
Format                           : MPEG-4 Visual
Format settings, BVOP            : No
Format settings, QPel            : No
Format settings, GMC             : No warppoints
Format settings, Matrix          : Default
Codec ID                         : XVID
Codec ID/Hint                    : XviD
Duration                         : 1h 24mn
Bit rate                         : 950 Kbps
Width                            : 576 pixels
Height                           : 304 pixels
Display aspect ratio             : 1.895
Frame rate                       : 25.000 fps
Resolution                       : 24 bits
Colorimetry                      : 4:2:0
Scan type                        : Progressive
Bits/(Pixel*Frame)               : 0.217
Stream size                      : 573 MiB (82%)

Audio
Format                           : MPEG Audio
Format version                   : Version 1
Format profile                   : Layer 3
Codec ID                         : 55
Codec ID/Hint                    : MP3
Duration                         : 1h 24mn
Bit rate mode                    : Variable
Bit rate                         : 200 Kbps
Nominal bit rate                 : 192 Kbps
Channel(s)                       : 2 channels
Sampling rate                    : 48.0 KHz
Resolution                       : 16 bits
Stream size                      : 121 MiB (17%)
Alignment                        : Aligned on interleaves
Interleave, duration             : 24 ms (0.60 video frame)
Interleave, preload duration     : 88 ms
Writing library                  : LAME3.90.
Encoding settings                : ABR
_______________________________________________________________________

CRC32: [Lupas Rename v5.0]
b6c9d06c

MD5: [File Checksum Integrity Verifier version 2.05.]
15fd6e0d7afb83c22ba2fadd4bef3130
_______________________________________________________________________

Codecs:
K-Lite Mega Codec Pack (http://www.free-codecs.com/download/K_Lite_Mega_Codec_Pack.htm)

Media players:
Media Player Classic (http://www.free-codecs.com/download/Media_Player_Classic.htm)
KMPlayer (http://www.free-codecs.com/download/KMPlayer.htm)
Gom Player (http://www.free-codecs.com/download/Gom_Player.htm)